<?xml version="1.0" encoding="UTF-8"?>
<svg width="21px" height="15px" viewBox="0 0 21 15" version="1.1" xmlns="http://www.w3.org/2000/svg" xmlns:xlink="http://www.w3.org/1999/xlink">
    <!-- Generator: Sketch 49 (51002) - http://www.bohemiancoding.com/sketch -->
    <title>burger_icon</title>
    <desc>Created with Sketch.</desc>
    <defs></defs>
    <g id="Symbols" stroke="none" stroke-width="1" fill="none" fill-rule="evenodd">
        <g id="top_nav_tablet" transform="translate(-21.000000, -25.000000)" fill="#FFFFFF">
            <g id="top_nav_mobile">
                <path d="M23.4428571,25 L40.3909091,25 C41.2193362,25 41.8909091,25.6715729 41.8909091,26.5 C41.8909091,27.3284271 41.2193362,28 40.3909091,28 L23.4428571,28 C22.61443,28 21.9428571,27.3284271 21.9428571,26.5 C21.9428571,25.6715729 22.61443,25 23.4428571,25 Z M23.4428571,31 L40.3909091,31 C41.2193362,31 41.8909091,31.6715729 41.8909091,32.5 C41.8909091,33.3284271 41.2193362,34 40.3909091,34 L23.4428571,34 C22.61443,34 21.9428571,33.3284271 21.9428571,32.5 C21.9428571,31.6715729 22.61443,31 23.4428571,31 Z M23.4428571,37 L40.3909091,37 C41.2193362,37 41.8909091,37.6715729 41.8909091,38.5 C41.8909091,39.3284271 41.2193362,40 40.3909091,40 L23.4428571,40 C22.61443,40 21.9428571,39.3284271 21.9428571,38.5 C21.9428571,37.6715729 22.61443,37 23.4428571,37 Z" id="burger_icon"></path>
            </g>
        </g>
    </g>
</svg>