<?xml version="1.0" encoding="UTF-8"?>
<svg width="14px" height="15px" viewBox="0 0 14 15" version="1.1" xmlns="http://www.w3.org/2000/svg" xmlns:xlink="http://www.w3.org/1999/xlink">
    <!-- Generator: Sketch 48.2 (47327) - http://www.bohemiancoding.com/sketch -->
    <title>calendar_icon</title>
    <desc>Created with Sketch.</desc>
    <defs></defs>
    <g id="take-action" stroke="none" stroke-width="1" fill="none" fill-rule="evenodd" transform="translate(-1173.000000, -244.000000)">
        <g id="if_calendar_293659" transform="translate(1173.000000, 244.000000)" fill="#109AF1" fill-rule="nonzero">
            <path d="M0,2 L2,2 L2,1 C2,0.44771525 2.44771525,1.01453063e-16 3,0 C3.55228475,-1.01453063e-16 4,0.44771525 4,1 L4,2 L10,2 L10,1 C10,0.44771525 10.4477153,1.01453063e-16 11,0 C11.5522847,-1.01453063e-16 12,0.44771525 12,1 L12,2 L14,2 L14,5 L0,5 M0,6 L14,6 L14,15 L0,15" id="calendar_icon"></path>
        </g>
    </g>
</svg>