<?xml version="1.0" encoding="UTF-8"?>
<svg width="16px" height="16px" viewBox="0 0 16 16" version="1.1" xmlns="http://www.w3.org/2000/svg" xmlns:xlink="http://www.w3.org/1999/xlink">
    <!-- Generator: Sketch 48.2 (47327) - http://www.bohemiancoding.com/sketch -->
    <title>earth_icon_breadcrumbs</title>
    <desc>Created with Sketch.</desc>
    <defs></defs>
    <g id="nBreadcrumbs" stroke="none" stroke-width="1" fill="none" fill-rule="evenodd" transform="translate(0.000000, -3.000000)">
        <g id="earth_icon_breadcrumbs" transform="translate(0.000000, 3.000000)" fill="#C5C5C5" fill-rule="nonzero">
            <path d="M7.99984,0.636553333 C3.93962,0.636553333 0.63656,3.93994 0.63656,8.00016 C0.63656,12.06038 3.93962,15.36344 7.99984,15.36344 C12.06006,15.36344 15.3634467,12.06038 15.3634467,8.00016 C15.3634467,3.93994 12.06006,0.636553333 7.99984,0.636553333 Z M7.69596667,10.2634267 C7.73747333,10.38802 7.37414667,10.75134 7.34302,10.7720933 C7.31185333,10.7928467 6.63712667,10.4191467 6.52295333,10.3672667 C6.40873333,10.3153467 6.14925333,9.47452667 6.14925333,9.47452667 L5.90010667,9.23576 C5.90010667,9.23576 5.32918667,8.81018 5.27726,8.78938667 C5.22538,8.76863333 5.12158,7.96936 5.08829333,7.89668667 C5.05504667,7.82401333 4.83088667,7.59562 4.76863333,7.55412 C4.70634,7.51261333 4.67520667,6.80672667 4.67520667,6.80672667 C4.67520667,6.80672667 4.70633333,6.4019 4.91393333,6.10083333 C5.12157333,5.79980667 5.11116,5.28076667 5.0489,5.17696667 C4.98660667,5.07316667 4.57958,5.22364 4.57958,5.22364 C4.57958,5.22364 4.26476,5.06751333 4.23363333,5.08826667 L4.02306,4.69723333 C4.02306,4.69723333 2.76895333,4.60804 2.7897,4.57691333 C2.7897,4.57691333 4.78742,1.39742667 8.93382667,1.87318 L9.00633333,1.87318 C9.23122667,1.88990667 9.43834,1.89006667 9.55605333,2.09864667 C9.57908667,2.13942 10.0005533,2.50916667 9.99005333,2.50916667 C9.98769333,2.50916667 8.83779333,2.50916667 8.83779333,2.50916667 L8.59902667,2.71676667 L9.64834,3.34356 C9.50466,3.38274667 9.21275333,3.47376667 9.01597333,3.5359 C8.88373333,3.57768667 8.76141333,3.64088 8.65049333,3.72405333 L8.23574,4.03512667 L7.84996,4.5853 L8.41217333,5.0005 C8.41217333,5.0005 9.06614667,5.49879333 9.09731333,5.51954 C9.12844,5.54029333 9.26341333,5.1043 9.26341333,5.1043 C9.24954,4.76864667 9.23570667,4.43303333 9.22186667,4.09738 C9.32566667,4.13200667 9.42946667,4.16659333 9.53326667,4.20118 L9.99001333,4.15967333 C9.99001333,4.15967333 10.44676,4.51262 10.49868,4.55412 C10.55056,4.59566667 10.7582,5.04203333 10.7582,5.04203333 C10.7518533,5.11182 10.7030267,5.49328667 10.7917667,5.50728667 C10.80902,5.51001333 10.8259867,5.50228 10.8416533,5.49467333 C10.999,5.41826 11.1490667,5.32898 11.29946,5.23995333 C11.3705867,5.1978 11.5230533,5.06278667 11.6093933,5.06278667 C11.64052,5.06278667 11.4744667,5.43648667 11.4536733,5.46761333 C11.4373533,5.49210667 11.0486467,6.13940667 10.88336,6.41476 C10.8334333,6.49793333 10.7756933,6.57178 10.70762,6.64095333 L10.16652,7.1908 L10.3533667,7.51258 L9.90178667,8.04708667 C9.86378,8.09208667 9.82256,8.13428667 9.77849333,8.17338667 L9.29452667,8.60254667 C9.29452667,8.60254667 8.76510667,8.72714 8.73398,8.72714 C8.70281333,8.72714 8.30836,8.82056667 8.30836,8.82056667 C8.30836,8.82056667 7.56096667,8.74789333 7.45716667,9.14234667 C7.35339333,9.53682667 7.65442,10.1388733 7.69596667,10.2634267 Z M13.2102067,8.33809333 C13.3046067,8.3171 12.95846,8.77864667 12.93746,8.85205333 C12.9165067,8.92546 12.5598533,9.29260667 12.5598533,9.29260667 L11.9724533,9.36601333 C12.06828,8.81751333 12.5216467,8.40544 13.0761333,8.35400667 C13.1427,8.34782 13.19116,8.34232667 13.2102067,8.33809333 Z M9.86918,10.1819667 L9.59391333,9.77458 C9.5719,9.74154 9.70402,9.59839333 9.70402,9.59839333 C9.70402,9.59839333 10.75004,9.44426 10.84912,9.45524667 C10.9482,9.46627333 11.11336,9.77458 11.11336,9.77458 C11.11336,9.77458 10.75004,10.2480067 10.6289067,10.2480067 C10.5078133,10.2480067 9.86918,10.1819667 9.86918,10.1819667 Z M10.14734,11.61068 C10.14734,11.61068 10.0214867,11.6631267 9.89563333,11.72608 C9.76974,11.7889867 9.61243333,11.8414333 9.59143333,11.7994867 C9.57043333,11.75754 9.47603333,11.6946267 9.30823333,11.5687333 C9.14038667,11.44288 8.92013333,11.32748 8.80473333,11.2750333 C8.68938,11.2226267 8.42712667,11.0233267 8.38518,10.92892 C8.35824,10.8682933 8.49008,10.6876667 8.51103333,10.5932667 C8.53202667,10.4988667 8.50057333,10.2174533 8.56348,10.2480133 C8.62642667,10.2785733 8.76278,10.1965 8.89913333,10.2480133 C9.03552667,10.2995667 9.24528667,10.4044667 9.28723333,10.4883667 C9.32922667,10.5722667 9.43408667,10.7610733 9.54948,10.83452 C9.66483333,10.9079267 9.87463333,10.9918267 9.86413333,11.12818 C9.85367333,11.2645733 10.02148,11.44288 10.02148,11.44288 L10.14734,11.61068 Z M10.35242,13.5732 C9.78109333,13.3199467 9.63794,13.0336867 9.68200667,12.9786333 C9.72603333,12.92358 10.0893933,12.6263 10.1995067,12.47212 C10.3096133,12.3179867 10.8821667,11.6683667 10.8821667,11.6683667 L10.70598,11.3160333 L11.1980467,11.02526 C11.3525867,10.9339533 11.5252733,10.8775933 11.7039067,10.86026 L12.1827067,10.8137133 C12.2111867,10.8109067 12.2397533,10.8091533 12.26836,10.80838 L13.0402133,10.7875067 C13.0402133,10.7875067 13.7415067,10.6059067 13.63478,10.7985333 C12.0267333,13.7014133 10.35242,13.5732 10.35242,13.5732 Z" id="Shape"></path>
        </g>
    </g>
</svg>