<?xml version="1.0" encoding="UTF-8"?>
<svg width="62px" height="62px" viewBox="0 0 62 62" version="1.1" xmlns="http://www.w3.org/2000/svg" xmlns:xlink="http://www.w3.org/1999/xlink">
    <!-- Generator: Sketch 48.2 (47327) - http://www.bohemiancoding.com/sketch -->
    <title>fb_icon</title>
    <desc>Created with Sketch.</desc>
    <defs></defs>
    <g id="mobile_footer" stroke="none" stroke-width="1" fill="none" fill-rule="evenodd" transform="translate(-22.000000, -314.000000)">
        <g id="socials" transform="translate(23.000000, 315.000000)">
            <g id="fb_icon">
                <path d="M30,60 C46.5685433,60 60,46.5685433 60,30 C60,13.4314567 46.5685433,0 30,0 C13.4314567,0 0,13.4314567 0,30 C0,46.5685433 13.4314567,60 30,60 Z" id="Oval-1-path" stroke="#E3E3E3" stroke-width="2"></path>
                <path d="M32.474345,45 L32.474345,29.9982436 L36.9119249,29.9982436 L37.5,24.8285553 L32.474345,24.8285553 L32.4818845,22.2410764 C32.4818845,20.8927421 32.6191649,20.1702738 34.6943915,20.1702738 L37.4685858,20.1702738 L37.4685858,15 L33.0303776,15 C27.699376,15 25.8230015,17.507855 25.8230015,21.7252785 L25.8230015,24.8291408 L22.5,24.8291408 L22.5,29.998829 L25.8230015,29.998829 L25.8230015,45 L32.474345,45 Z" id="Oval-1-path" fill="#D4D4D4"></path>
            </g>
        </g>
    </g>
</svg>