<?xml version="1.0" encoding="UTF-8"?>
<svg width="62px" height="62px" viewBox="0 0 62 62" version="1.1" xmlns="http://www.w3.org/2000/svg" xmlns:xlink="http://www.w3.org/1999/xlink">
    <!-- Generator: Sketch 48.2 (47327) - http://www.bohemiancoding.com/sketch -->
    <title>ig_icon_hover</title>
    <desc>Created with Sketch.</desc>
    <defs></defs>
    <g id="mobile_footer" stroke="none" stroke-width="1" fill="none" fill-rule="evenodd" transform="translate(-94.000000, -314.000000)">
        <g id="socials" transform="translate(23.000000, 315.000000)">
            <g id="ig_icon_hover" transform="translate(72.000000, 0.000000)">
                <path d="M30,60 C46.5685433,60 60,46.5685433 60,30 C60,13.4314567 46.5685433,0 30,0 C13.4314567,0 0,13.4314567 0,30 C0,46.5685433 13.4314567,60 30,60 Z" id="Oval-1-path-Copy" stroke="#08163B" stroke-width="2"></path>
                <path d="M30.6818182,23.1818182 C26.5802557,23.1818182 23.1818182,26.5216619 23.1818182,30.6818182 C23.1818182,34.8419744 26.5216619,38.1818182 30.6818182,38.1818182 C34.8419744,38.1818182 38.1818182,34.7833807 38.1818182,30.6818182 C38.1818182,26.5802557 34.7833807,23.1818182 30.6818182,23.1818182 Z M30.6818182,35.4865057 C28.0450994,35.4865057 25.8771307,33.3185369 25.8771307,30.6818182 C25.8771307,28.0450994 28.0450994,25.8771307 30.6818182,25.8771307 C33.3185369,25.8771307 35.4865057,28.0450994 35.4865057,30.6818182 C35.4865057,33.3185369 33.3185369,35.4865057 30.6818182,35.4865057 Z" id="Shape" fill="#08163B" fill-rule="nonzero"></path>
                <circle id="Oval" fill="#3B4662" fill-rule="nonzero" cx="38.8636364" cy="22.5" r="2.04545455"></circle>
                <path d="M42.6906158,18.7307551 C41.1895161,17.1719208 39.0533358,16.3636364 36.6284824,16.3636364 L24.735154,16.3636364 C19.7122434,16.3636364 16.3636364,19.7122434 16.3636364,24.735154 L16.3636364,36.5707478 C16.3636364,39.0533358 17.1719208,41.1895161 18.7884897,42.7483504 C20.347324,44.2494501 22.4257698,45 24.7928886,45 L36.5707478,45 C39.0533358,45 41.1317815,44.1917155 42.6328812,42.7483504 C44.1917155,41.2472507 45,39.1110704 45,36.6284824 L45,24.735154 C45,22.3103006 44.1917155,20.2318548 42.6906158,18.7307551 Z M42.4596774,36.6284824 C42.4596774,38.4182551 41.8245968,39.8616202 40.7853739,40.8431085 C39.746151,41.8245968 38.3027859,42.3442082 36.5707478,42.3442082 L24.7928886,42.3442082 C23.0608504,42.3442082 21.6174853,41.8245968 20.5782625,40.8431085 C19.5390396,39.8038856 19.0194282,38.3605205 19.0194282,36.5707478 L19.0194282,24.735154 C19.0194282,23.0031158 19.5390396,21.5597507 20.5782625,20.5205279 C21.5597507,19.5390396 23.0608504,19.0194282 24.7928886,19.0194282 L36.686217,19.0194282 C38.4182551,19.0194282 39.8616202,19.5390396 40.9008431,20.5782625 C41.8823314,21.6174853 42.4596774,23.0608504 42.4596774,24.735154 L42.4596774,36.6284824 Z" id="Shape" fill="#08163B" fill-rule="nonzero"></path>
            </g>
        </g>
    </g>
</svg>