<?xml version="1.0" encoding="UTF-8"?>
<svg width="62px" height="62px" viewBox="0 0 62 62" version="1.1" xmlns="http://www.w3.org/2000/svg" xmlns:xlink="http://www.w3.org/1999/xlink">
    <!-- Generator: Sketch 48.2 (47327) - http://www.bohemiancoding.com/sketch -->
    <title>rss_icon</title>
    <desc>Created with Sketch.</desc>
    <defs></defs>
    <g id="mobile_footer" stroke="none" stroke-width="1" fill="none" fill-rule="evenodd" transform="translate(-239.000000, -314.000000)">
        <g id="socials" transform="translate(23.000000, 315.000000)">
            <g id="rss_icon" transform="translate(217.000000, 0.000000)">
                <path d="M30,60 C46.5685433,60 60,46.5685433 60,30 C60,13.4314567 46.5685433,0 30,0 C13.4314567,0 0,13.4314567 0,30 C0,46.5685433 13.4314567,60 30,60 Z" id="Oval-1-path-Copy-2" stroke="#E3E3E3" stroke-width="2"></path>
                <path d="M23.16,32.88 C25.3489803,32.88 27.12,34.6644883 27.12,36.8471095 C27.12,39.0297307 25.3489803,40.8 23.16,40.8 C20.9781038,40.8 19.2,39.0368402 19.2,36.8471095 C19.2,34.6644883 20.9781038,32.88 23.16,32.88 Z M19.2,23.64 C28.584375,23.64 36.36,31.4223281 36.36,40.8 L30.9975,40.8 C30.9975,37.5757969 30.0523594,34.4923594 27.78,32.22 C25.5076406,29.9476406 22.4175,28.9957969 19.2,28.9957969 L19.2,23.64 Z M19.2,14.4 C33.775,14.4 45.6,26.245625 45.6,40.8 L40.093125,40.8 C40.093125,29.036875 30.95625,19.893125 19.2,19.893125 L19.2,14.4 Z" id="Combined-Shape" fill="#D3D3D3" fill-rule="nonzero"></path>
            </g>
        </g>
    </g>
</svg>