<?xml version="1.0" encoding="UTF-8"?>
<svg width="20px" height="20px" viewBox="0 0 20 20" version="1.1" xmlns="http://www.w3.org/2000/svg" xmlns:xlink="http://www.w3.org/1999/xlink">
    <!-- Generator: Sketch 48.2 (47327) - http://www.bohemiancoding.com/sketch -->
    <title>search_icon_top_nav</title>
    <desc>Created with Sketch.</desc>
    <defs></defs>
    <g id="top_nav_tablet" stroke="none" stroke-width="1" fill="none" fill-rule="evenodd" transform="translate(-608.000000, -23.000000)">
        <g id="top_nav_mobile" fill="#FFFFFF" fill-rule="nonzero">
            <path d="M627.399208,42.4497266 C626.667442,43.1833984 625.481351,43.1833984 624.749545,42.4497266 L621.443234,39.1347656 C620.083922,40.0090625 618.47713,40.5299609 616.742234,40.5299609 C611.914377,40.5299609 608,36.6059375 608,31.7649609 C608,26.9239844 611.914377,23 616.742234,23 C621.570714,23 625.484468,26.9239062 625.484468,31.7649609 C625.484468,33.5037891 624.96426,35.1153906 624.092857,36.4788672 L627.399208,39.7938281 C628.130974,40.5275 628.130974,41.7160547 627.399208,42.4497266 Z M616.742234,25.5042578 C613.293753,25.5042578 610.497792,28.306875 610.497792,31.7649219 C610.497792,35.2229687 613.293792,38.025625 616.742234,38.025625 C620.19126,38.025625 622.986636,35.2229687 622.986636,31.7649219 C622.986636,28.306875 620.19126,25.5042578 616.742234,25.5042578 Z" id="search_icon_top_nav"></path>
        </g>
    </g>
</svg>