<?xml version="1.0" encoding="UTF-8"?>
<svg width="24px" height="24px" viewBox="0 0 24 24" version="1.1" xmlns="http://www.w3.org/2000/svg" xmlns:xlink="http://www.w3.org/1999/xlink">
    <!-- Generator: Sketch 48.2 (47327) - http://www.bohemiancoding.com/sketch -->
    <title>search icon_white</title>
    <desc>Created with Sketch.</desc>
    <defs></defs>
    <g id="animals" stroke="none" stroke-width="1" fill="none" fill-rule="evenodd" transform="translate(-1241.000000, -1119.000000)">
        <path d="M1257.61538,1129.15385 C1257.61538,1132.71635 1254.71635,1135.61538 1251.15385,1135.61538 C1247.59135,1135.61538 1244.69231,1132.71635 1244.69231,1129.15385 C1244.69231,1125.59135 1247.59135,1122.69231 1251.15385,1122.69231 C1254.71635,1122.69231 1257.61538,1125.59135 1257.61538,1129.15385 L1257.61538,1129.15385 Z M1265,1141.15385 C1265,1140.66346 1264.79808,1140.1875 1264.46635,1139.85577 L1259.51923,1134.90865 C1260.6875,1133.22115 1261.30769,1131.20192 1261.30769,1129.15385 C1261.30769,1123.54327 1256.76442,1119 1251.15385,1119 C1245.54327,1119 1241,1123.54327 1241,1129.15385 C1241,1134.76442 1245.54327,1139.30769 1251.15385,1139.30769 C1253.20192,1139.30769 1255.22115,1138.6875 1256.90865,1137.51923 L1261.85577,1142.45192 C1262.1875,1142.79808 1262.66346,1143 1263.15385,1143 C1264.16346,1143 1265,1142.16346 1265,1141.15385 L1265,1141.15385 Z" id="search-icon_white" fill="#FFFFFF"></path>
    </g>
</svg>