<?xml version="1.0" encoding="UTF-8"?>
<svg width="20px" height="20px" viewBox="0 0 20 20" version="1.1" xmlns="http://www.w3.org/2000/svg" xmlns:xlink="http://www.w3.org/1999/xlink">
    <!-- Generator: Sketch 48.2 (47327) - http://www.bohemiancoding.com/sketch -->
    <title>search_icon_earthpedia</title>
    <desc>Created with Sketch.</desc>
    <defs></defs>
    <g id="earthpedia-tablet" stroke="none" stroke-width="1" fill="none" fill-rule="evenodd" transform="translate(-306.000000, -496.000000)">
        <g id="hero" transform="translate(0.000000, 65.000000)" fill="#8CC63F" fill-rule="nonzero">
            <path d="M325.449727,450.449727 C324.716055,451.183398 323.526875,451.183398 322.793164,450.449727 L319.478242,447.134766 C318.115391,448.009063 316.504414,448.529961 314.765,448.529961 C309.92457,448.529961 306,444.605937 306,439.764961 C306,434.923984 309.92457,431 314.765,431 C319.606055,431 323.53,434.923906 323.53,439.764961 C323.53,441.503789 323.008438,443.115391 322.134766,444.478867 L325.449727,447.793828 C326.183398,448.5275 326.183398,449.716055 325.449727,450.449727 Z M314.765,433.504258 C311.307539,433.504258 308.504297,436.306875 308.504297,439.764922 C308.504297,443.222969 311.307578,446.025625 314.765,446.025625 C318.223008,446.025625 321.025664,443.222969 321.025664,439.764922 C321.025664,436.306875 318.223008,433.504258 314.765,433.504258 Z" id="search_icon_earthpedia"></path>
        </g>
    </g>
</svg>