<?xml version="1.0" encoding="UTF-8"?>
<svg width="62px" height="62px" viewBox="0 0 62 62" version="1.1" xmlns="http://www.w3.org/2000/svg" xmlns:xlink="http://www.w3.org/1999/xlink">
    <!-- Generator: Sketch 48.2 (47327) - http://www.bohemiancoding.com/sketch -->
    <title>twitter_icon_hover</title>
    <desc>Created with Sketch.</desc>
    <defs></defs>
    <g id="mobile_footer" stroke="none" stroke-width="1" fill="none" fill-rule="evenodd" transform="translate(-166.000000, -314.000000)">
        <g id="socials" transform="translate(23.000000, 315.000000)">
            <g id="twitter_icon_hover" transform="translate(144.000000, 0.000000)">
                <path d="M30,60 C46.5685433,60 60,46.5685433 60,30 C60,13.4314567 46.5685433,0 30,0 C13.4314567,0 0,13.4314567 0,30 C0,46.5685433 13.4314567,60 30,60 Z" id="Oval-1-path-Copy-2" stroke="#08163B" stroke-width="2"></path>
                <path d="M47.7272727,21.9964621 C46.5742868,22.4900198 45.3334422,22.8229414 44.0314785,22.9719284 C45.3608185,22.2055344 46.3801064,20.9915663 46.8607825,19.5433881 C45.6173913,20.2539887 44.2409387,20.7696186 42.7747175,21.0479729 C41.6013586,19.8438146 39.9288605,19.0909091 38.0780984,19.0909091 C34.5249154,19.0909091 31.6440423,21.8652554 31.6440423,25.2876646 C31.6440423,25.7726387 31.7007048,26.2453505 31.8108464,26.6996689 C26.4629272,26.4409343 21.7211055,23.9743718 18.5473701,20.2251722 C17.9934784,21.1399401 17.6764232,22.2043082 17.6764232,23.3410238 C17.6764232,25.4906057 18.8122194,27.3875842 20.5388333,28.498549 C19.4845292,28.4660539 18.4919809,28.1870864 17.6242173,27.7229582 C17.6235807,27.7487091 17.6235807,27.775073 17.6235807,27.801437 C17.6235807,30.8032491 19.8416938,33.3072116 22.785596,33.8774087 C22.2457109,34.0184252 21.6771761,34.0944515 21.0901783,34.0944515 C20.6750779,34.0944515 20.272074,34.0558253 19.8792566,33.9828646 C20.6986342,36.4445222 23.0746384,38.2366579 25.8899358,38.2863203 C23.6877391,39.9484756 20.9138243,40.9392698 17.8986165,40.9392698 C17.379741,40.9392698 16.8672321,40.9098403 16.3636364,40.8522074 C19.21204,42.611235 22.5939623,43.6363636 26.2273641,43.6363636 C38.0634553,43.6363636 44.5350743,34.1943893 44.5350743,26.0056225 C44.5350743,25.737078 44.5293444,25.4691467 44.5172479,25.2030547 C45.7740089,24.3312048 46.8652391,23.2392466 47.7272727,21.9964621 Z" id="Shape" fill="#08163B" fill-rule="nonzero"></path>
            </g>
        </g>
    </g>
</svg>