<svg xmlns="http://www.w3.org/2000/svg" viewBox="0 0 112.68 18"><defs><style>.cls-1{fill:#de3400;}.cls-2{fill:#08226b;}</style></defs><title>earth_general_news</title><g id="Layer_2" data-name="Layer 2"><g id="Layer_1-2" data-name="Layer 1"><circle class="cls-1" cx="63.87" cy="15.8" r="2.2"/><path class="cls-2" d="M107.05,4.58A6.3,6.3,0,0,0,103.22,6a5.65,5.65,0,0,0-3.6-1.38A5.48,5.48,0,0,0,94,10v7.25a.46.46,0,0,0,.46.46h2.92a.46.46,0,0,0,.46-.46V10a1.8,1.8,0,1,1,3.59-.14v7.38c0,.25.43.46.68.46h2.7a.46.46,0,0,0,.46-.46V9.86A1.73,1.73,0,0,1,107.05,8a1.67,1.67,0,0,1,1.8,1.8v7.46a.46.46,0,0,0,.46.46h2.92a.46.46,0,0,0,.46-.46V10A5.48,5.48,0,0,0,107.05,4.58Z"/><path class="cls-2" d="M86,4.58a6.7,6.7,0,1,0,7,6.7A6.7,6.7,0,0,0,86,4.58Zm0,9.89a3.2,3.2,0,1,1,3.2-3.2A3.2,3.2,0,0,1,86,14.47Z"/><path class="cls-2" d="M27.91,11.28c0-3.7-2.7-6.7-7.06-6.7a6.61,6.61,0,0,0-7,6.7A6.71,6.71,0,0,0,20.35,18a5.23,5.23,0,0,0,4-1.33l.13.65a.49.49,0,0,0,.45.4h2.55c.25,0,.46-.2.46-.81V11.57C27.9,11.47,27.91,11.37,27.91,11.28Zm-7,3.2a3.2,3.2,0,1,1,3.2-3.2A3.2,3.2,0,0,1,20.89,14.47Z"/><path class="cls-2" d="M36.73,4.58H35.57a6.4,6.4,0,0,0-6.64,6.52h0v6.13a.46.46,0,0,0,.46.46h2.86a.46.46,0,0,0,.46-.46v-6A3,3,0,0,1,35.7,8h1a.46.46,0,0,0,.46-.46V5A.46.46,0,0,0,36.73,4.58Z"/><path class="cls-2" d="M60.37,11.1A6.32,6.32,0,0,0,54,4.58a5.68,5.68,0,0,0-3.24,1.05V.46A.46.46,0,0,0,50.34,0H47.45A.46.46,0,0,0,47,.46V11.11h0v6.13a.46.46,0,0,0,.46.46h2.86a.46.46,0,0,0,.46-.46h0V11.78c0-.17,0-.35,0-.53v0A3,3,0,0,1,53.69,8a3.09,3.09,0,0,1,2.92,3.21v6a.46.46,0,0,0,.46.46h2.86a.46.46,0,0,0,.46-.46V11.1Z"/><path class="cls-2" d="M45.23,14.37h-.67A2.12,2.12,0,0,1,42.24,12v-1.9h0V8h2.53a.46.46,0,0,0,.46-.46V5a.46.46,0,0,0-.46-.46H42.25V1.7a.46.46,0,0,0-.46-.46H39a.46.46,0,0,0-.46.46V8.17h0v4.28c0,4.46,3.54,5.41,5.5,5.41.22,0,1.11,0,1.29,0a.33.33,0,0,0,.28-.32V14.71A.35.35,0,0,0,45.23,14.37Z"/><path class="cls-2" d="M6.9,4.58A6.7,6.7,0,1,0,6.9,18a8.6,8.6,0,0,0,4.89-1.41.46.46,0,0,0,.08-.68l-1.55-1.75a.46.46,0,0,0-.56-.1A5.06,5.06,0,0,1,7,14.73a3.27,3.27,0,0,1-3.05-2h7.59A1.43,1.43,0,0,0,13,11.33v-.27C13,7.78,11,4.58,6.9,4.58ZM6.76,7.81A2.27,2.27,0,0,1,9.27,10H3.8A2.86,2.86,0,0,1,6.76,7.81Z"/><path class="cls-2" d="M76,13.47a3.2,3.2,0,1,1,0-4.39.46.46,0,0,0,.63,0l2.14-1.85a.46.46,0,0,0,0-.67,7,7,0,0,0-5.12-2,6.7,6.7,0,1,0,0,13.39,7,7,0,0,0,5.12-2,.46.46,0,0,0,0-.67l-2.14-1.85A.46.46,0,0,0,76,13.47Z"/></g></g></svg>