<?xml version="1.0" encoding="UTF-8"?>
<svg width="107px" height="17px" viewBox="0 0 107 17" version="1.1" xmlns="http://www.w3.org/2000/svg" xmlns:xlink="http://www.w3.org/1999/xlink">
    <!-- Generator: Sketch 49 (51002) - http://www.bohemiancoding.com/sketch -->
    <title>logo</title>
    <desc>Created with Sketch.</desc>
    <defs></defs>
    <g id="Symbols" stroke="none" stroke-width="1" fill="none" fill-rule="evenodd">
        <g id="top_nav_tablet" transform="translate(-64.000000, -24.000000)" fill="#FFFFFF" fill-rule="nonzero">
            <g id="top_nav_mobile">
                <g id="logo" transform="translate(64.000000, 24.000000)">
                    <path d="M101.543936,4.21068027 C100.239981,4.23516056 98.9810135,4.68248904 97.9636948,5.48278912 C97.0264631,4.68385711 95.8326028,4.23355781 94.591004,4.21068027 C91.7400297,4.16088215 89.3822793,6.3764708 89.3114458,9.17190476 L89.3114458,15.8377551 C89.3114458,16.069602 89.5031003,16.257551 89.7395181,16.257551 L92.4765863,16.257551 C92.7130041,16.257551 92.9046586,16.069602 92.9046586,15.8377551 L92.9046586,9.18462585 C92.8303689,8.56692886 93.115779,7.96059179 93.6433384,7.61534367 C94.1708978,7.27009554 94.8513775,7.24433017 95.4045116,7.5486594 C95.9576457,7.85298863 96.2898795,8.4359395 96.2643775,9.05741497 L96.2643775,15.8377551 C96.2643775,16.0667347 96.666506,16.257551 96.9,16.257551 L99.4295181,16.257551 C99.6659359,16.257551 99.8575904,16.069602 99.8575904,15.8377551 L99.8575904,9.05741497 C99.8159934,8.60071741 99.9774464,8.14863975 100.300519,7.81719123 C100.623591,7.4857427 101.076832,7.3071881 101.543936,7.32734694 C102.001141,7.29254883 102.450997,7.45557279 102.775262,7.77356834 C103.099527,8.09156388 103.265765,8.53272316 103.230281,8.98108844 L103.230281,15.8377551 C103.230281,16.069602 103.421936,16.257551 103.658353,16.257551 L106.369478,16.257551 C106.48301,16.257551 106.591892,16.2133226 106.672171,16.1345956 C106.75245,16.0558686 106.79755,15.9490919 106.79755,15.8377551 L106.79755,9.17190476 C106.726754,6.38653839 104.384865,4.17498725 101.543936,4.21068027 Z" id="Shape"></path>
                    <path d="M81.4504819,4.21068027 C78.0266036,4.3704221 75.3661975,7.1936832 75.4735241,10.5535136 C75.5808508,13.9133441 78.4162364,16.5677702 81.8435969,16.5170366 C85.2709574,16.466303 88.0233563,13.7291635 88.0272289,10.3676871 C88.02917,8.6827663 87.3269016,7.0706803 86.0841309,5.90722546 C84.8413601,4.74377062 83.1666813,4.1306106 81.4504819,4.21068027 Z M81.4504819,13.2935374 C79.7955573,13.2935374 78.4539759,11.9778942 78.4539759,10.354966 C78.4539759,8.7320378 79.7955573,7.41639456 81.4504819,7.41639456 C83.1054065,7.41639456 84.446988,8.7320378 84.446988,10.354966 C84.446988,11.1343236 84.1312855,11.8817607 83.5693317,12.4328498 C83.0073778,12.9839388 82.2452047,13.2935374 81.4504819,13.2935374 Z" id="Shape"></path>
                    <ellipse id="Oval" cx="60.3063052" cy="14.5147619" rx="2.06253012" ry="2.02265306"></ellipse>
                    <path d="M19.5616064,4.21068027 C17.8536086,4.12961122 16.1875501,4.74532062 14.9589009,5.91165843 C13.7302517,7.07799625 13.048569,8.69096154 13.0756627,10.3676871 C13.0658113,13.6761023 15.7238437,16.4007171 19.0946185,16.537415 C20.4580466,16.639213 21.8028894,16.1780796 22.8045783,15.2653061 L22.9342972,15.8631973 C22.9707236,16.0696118 23.1489497,16.2232066 23.3623695,16.2321088 L25.7491968,16.2321088 C25.9826908,16.2321088 26.1772691,16.0412925 26.1772691,15.4815646 L26.1772691,10.6348299 C26.1772691,10.5457823 26.1772691,10.4567347 26.1772691,10.3676871 C26.206887,8.66750775 25.5076971,7.03315093 24.2499676,5.86261823 C22.992238,4.69208552 21.2913861,4.09279256 19.5616064,4.21068027 Z M19.5616064,13.2935374 C17.9066818,13.2935374 16.5651004,11.9778942 16.5651004,10.354966 C16.5651004,8.7320378 17.9066818,7.41639456 19.5616064,7.41639456 C21.216531,7.41639456 22.5581124,8.7320378 22.5581124,10.354966 C22.5582507,11.9631066 21.2402292,13.2726525 19.6005221,13.2935374 L19.5616064,13.2935374 Z" id="Shape"></path>
                    <path d="M34.5311647,4.21068027 L33.4415261,4.21068027 C31.8005486,4.15471508 30.208025,4.76147084 29.0359959,5.88919902 C27.8639668,7.01692719 27.2150935,8.56684704 27.2409639,10.1768707 L27.2409639,15.8123129 C27.2409639,16.0441598 27.4326183,16.2321088 27.6690361,16.2321088 L30.341245,16.2321088 C30.5776628,16.2321088 30.7693173,16.0441598 30.7693173,15.8123129 L30.7693173,10.3168027 C30.7067298,9.55256352 30.9772239,8.79809608 31.5137464,8.24042627 C32.0502689,7.68275647 32.8025903,7.37409356 33.5842169,7.39095238 L34.5441365,7.39095238 C34.7805543,7.39095238 34.9722088,7.20300335 34.9722088,6.97115646 L34.9722088,4.63047619 C34.972262,4.51689986 34.9253854,4.40814908 34.8422784,4.32904596 C34.7591714,4.24994283 34.646927,4.20723855 34.5311647,4.21068027 Z" id="Shape"></path>
                    <path d="M51.0832932,4.21068027 C49.9768214,4.21096867 48.8978526,4.54885189 47.9959839,5.17748299 L47.9959839,0.419795918 C47.9975874,0.206449116 47.8357547,0.0258551263 47.6197992,0 L44.9216466,0 C44.6852288,-1.41965272e-17 44.4935743,0.187949035 44.4935743,0.419795918 L44.4935743,10.1768707 L44.4935743,15.8123129 C44.4935743,16.0441598 44.6852288,16.2321088 44.9216466,16.2321088 L47.5938554,16.2321088 C47.7635283,16.2304336 47.9161764,16.1306358 47.983012,15.9776871 L47.983012,15.9013605 C47.9862313,15.871762 47.9862313,15.8419115 47.983012,15.8123129 L47.983012,10.8256463 C47.983012,10.6602721 47.983012,10.507619 47.983012,10.3422449 C47.9258531,9.59323052 48.1853189,8.85412716 48.7005305,8.29835159 C49.2157422,7.74257602 49.9413517,7.4190466 50.7071084,7.40367347 C52.2898695,7.48595909 53.5103672,8.80198246 53.4441767,10.354966 L53.4441767,15.8504762 C53.4441767,16.0823231 53.6358312,16.2702721 53.872249,16.2702721 L56.5444578,16.2702721 C56.7808756,16.2702721 56.9725301,16.0823231 56.9725301,15.8504762 L56.9725301,10.1768707 C57.0143866,8.61534711 56.4136933,7.1030009 55.3058221,5.98065338 C54.1979509,4.85830585 52.6761218,4.22039511 51.0832932,4.21068027 Z" id="Shape"></path>
                    <path d="M42.456988,13.2044898 L41.8213655,13.2044898 C41.2185937,13.2638289 40.6211926,13.0499445 40.1991905,12.6237108 C39.7771883,12.1974771 39.5768006,11.6055731 39.6550602,11.0164626 L39.6550602,9.27367347 L39.6550602,7.39095238 L42.0159438,7.39095238 C42.2523616,7.39095238 42.4440161,7.20300335 42.4440161,6.97115646 L42.4440161,4.63047619 C42.4440161,4.39862931 42.2523616,4.21068027 42.0159438,4.21068027 L39.6550602,4.21068027 L39.6550602,1.56469388 C39.6550602,1.33284699 39.4634057,1.14489796 39.226988,1.14489796 L36.6326104,1.14489796 C36.3961926,1.14489796 36.2045382,1.33284699 36.2045382,1.56469388 L36.2045382,7.50544218 L36.2045382,11.4489796 C36.1207134,12.8120553 36.644669,14.1436415 37.6404357,15.0981844 C38.6362025,16.0527274 40.0056112,16.5361221 41.3932932,16.4229252 C41.6008434,16.4229252 42.4310442,16.4229252 42.5996787,16.4229252 C42.7463145,16.3986762 42.8549906,16.2761149 42.8591165,16.1303401 L42.8591165,13.5861224 C42.8863636,13.4764419 42.8522791,13.3608164 42.7695579,13.2823113 C42.6868366,13.2038062 42.5678777,13.1741887 42.456988,13.2044898 Z" id="Shape"></path>
                    <path d="M6.48594378,4.21068027 C3.01490066,4.21068027 0.201064257,6.97011383 0.201064257,10.3740476 C0.201064257,13.7779814 3.01490066,16.537415 6.48594378,16.537415 C8.10811305,16.5753221 9.70414385,16.1319303 11.0650201,15.2653061 C11.1657665,15.1971389 11.2319385,15.0899398 11.2468151,14.9707966 C11.2616917,14.8516535 11.2238497,14.7319642 11.1428514,14.6419728 L9.66405622,12.9882313 C9.53239821,12.8453504 9.31849326,12.8086408 9.14518072,12.8991837 C8.35931384,13.3468335 7.45867626,13.5632235 6.55080321,13.522517 C5.31490128,13.5405806 4.18917139,12.8280213 3.69698795,11.7161224 L10.8185542,11.7161224 C11.5349718,11.7161224 12.115743,11.1465799 12.115743,10.4440136 L12.115743,10.1768707 C12.1546586,7.1492517 10.37751,4.21068027 6.48594378,4.21068027 Z M3.56726908,9.21006803 C3.86239931,7.958363 5.03551678,7.09822367 6.34325301,7.17469388 C6.93566499,7.11404001 7.52687376,7.29971611 7.97314114,7.68657952 C8.41940852,8.07344292 8.67985695,8.62605739 8.69116466,9.21006803 L3.56726908,9.21006803 Z" id="Shape"></path>
                    <path d="M69.6460643,7.42911565 C70.470317,7.42610086 71.2591174,7.75762216 71.8253414,8.34503401 C71.9897496,8.49530882 72.244668,8.49530882 72.4090763,8.34503401 L74.4197189,6.65312925 C74.5054143,6.57381957 74.5539844,6.46337619 74.5539844,6.34782313 C74.5539844,6.23227007 74.5054143,6.12182669 74.4197189,6.04251701 C73.1506103,4.79914491 71.4130554,4.12677111 69.6201205,4.1852381 C67.3113373,4.08224259 65.1315348,5.2315024 63.9457544,7.17694074 C62.759974,9.12237909 62.759974,11.5493896 63.9457544,13.494828 C65.1315348,15.4402663 67.3113373,16.5895261 69.6201205,16.4865306 C71.4130554,16.5449976 73.1506103,15.8726238 74.4197189,14.6292517 C74.5054143,14.549942 74.5539844,14.4394986 74.5539844,14.3239456 C74.5539844,14.2083925 74.5054143,14.0979491 74.4197189,14.0186395 L72.4090763,12.3394558 C72.244668,12.189181 71.9897496,12.189181 71.8253414,12.3394558 C70.8889487,13.3188449 69.3947634,13.5513332 68.1952277,12.9042844 C66.9956921,12.2572357 66.3958653,10.8952038 66.7379524,9.59523669 C67.0800395,8.29526961 68.2770428,7.38796761 69.6460643,7.39095238 L69.6460643,7.42911565 Z" id="Shape"></path>
                </g>
            </g>
        </g>
    </g>
</svg>